<?xml version="1.0" standalone="no"?><!DOCTYPE svg PUBLIC "-//W3C//DTD SVG 1.1//EN" "http://www.w3.org/Graphics/SVG/1.1/DTD/svg11.dtd"><svg t="1523611152740" class="icon" style="" viewBox="0 0 1024 1024" version="1.1" xmlns="http://www.w3.org/2000/svg" p-id="2215" xmlns:xlink="http://www.w3.org/1999/xlink" width="200" height="200"><defs><style type="text/css"></style></defs><path d="M571.050667 512l270.08-269.994667a41.642667 41.642667 0 0 0 0-58.965333 41.557333 41.557333 0 0 0-58.965334 0L512 452.949333 241.834667 182.912a41.557333 41.557333 0 0 0-58.922667 0 41.642667 41.642667 0 0 0 0 58.965333l270.08 270.08-270.08 270.08a41.642667 41.642667 0 0 0 29.44 71.210667c10.709333 0 21.333333-4.053333 29.482667-12.202667L512 570.965333l270.165333 270.165334a41.386667 41.386667 0 0 0 29.44 12.202666 41.642667 41.642667 0 0 0 29.44-71.168l-269.994666-270
.122666z" fill="#ffffff" p-id="2216"></path></svg>